<svg xmlns="http://www.w3.org/2000/svg" viewBox="0 0 14.9 18.4"><defs><style>.a{fill:#f2f2f2;}</style></defs><title>beenIcon</title><path class="a" d="M13.5,2.3H10.3V1.7A1.7,1.7,0,0,0,8.6,0H6.3A1.8,1.8,0,0,0,4.6,1.7v.6H1.4A1.4,1.4,0,0,0,0,3.7V4.9a.6.6,0,0,0,.6.5H14.3c.4,0,.6-.2.6-.5V3.7A1.4,1.4,0,0,0,13.5,2.3ZM5.7,1.7a.6.6,0,0,1,.6-.6H8.6a.6.6,0,0,1,.6.6v.6H5.7Z"/><path class="a" d="M1.1,6.6a.2.2,0,0,0-.2.2l.5,9.9a1.8,1.8,0,0,0,1.7,1.7h8.7a1.8,1.8,0,0,0,1.7-1.7L14,6.8l-.2-.2ZM9.8,8a.5.5,0,0,1,.5-.5.6.6,0,0,1,.6.5v7.5a.6.6,0,0,1-.6.6.6.6,0,0,1-.5-.6ZM6.9,8c0-.3.2-.5.6-.5A.5.5,0,0,1,8,8v7.5a.6.6,0,0,1-.5.6.6.6,0,0,1-.6-.6ZM4,8a.6.6,0,0,1,.6-.5.6.6,0,0,1,.6.5v7.5a.6.6,0,0,1-.6.6.6.6,0,0,1-.6-.6Z"/></svg>