<svg xmlns="http://www.w3.org/2000/svg" viewBox="0 0 74 138.5"><defs><style>.a{fill:#2d2d2d;}.b{fill:#212121;}.c{fill:#121212;}.d,.e,.f{fill:none;stroke-miterlimit:10;}.d,.e{stroke:#3d3f44;stroke-width:2px;}.e{stroke-dasharray:4.12 4.12;}.f{stroke:#00dac7;stroke-linecap:round;stroke-width:3px;}</style></defs><title>switchGraphe_2</title><path class="a" d="M74,19.5v50H0v-50A19.5,19.5,0,0,1,19.5,0h35A19.5,19.5,0,0,1,74,19.5Z"/><path class="b" d="M49.3,27.9l1.5-1.5a1.4,1.4,0,0,0,0-2.1,1.7,1.7,0,0,0-2.1,0l-1.5,1.5a15.7,15.7,0,0,0-8.7-3.6v-3h1.4a1.5,1.5,0,0,0,1.5-1.5,1.5,1.5,0,0,0-1.5-1.4H34.1a1.4,1.4,0,0,0-1.5,1.4,1.4,1.4,0,0,0,1.5,1.5h1.4v3a16,16,0,1,0,13.8,5.7ZM37,51.2A13.1,13.1,0,1,1,50,38.1,13.1,13.1,0,0,1,37,51.2Zm6.8-19.9a1.4,1.4,0,0,1,0,2.1L38,39.2a1.4,1.4,0,0,1-2.1,0,1.7,1.7,0,0,1,0-2.1l5.8-5.8A1.4,1.4,0,0,1,43.8,31.3Z"/><path class="c" d="M0,119V69H74v50a19.5,19.5,0,0,1-19.5,19.5h-35A19.5,19.5,0,0,1,0,119Z"/><line class="d" x1="74" y1="69.5" x2="72" y2="69.5"/><polyline class="e" points="67.9 69.5 5.5 69.5 4.1 69.5"/><line class="d" x1="2" y1="69.5" y2="69.5"/><line class="f" x1="22.5" y1="103" x2="51.5" y2="103"/><line class="f" x1="22.4" y1="102.6" x2="29.5" y2="95.5"/><line class="f" x1="29.5" y1="110.6" x2="22.4" y2="103.5"/><line class="f" x1="51.5" y1="102.6" x2="44.4" y2="95.5"/><line class="f" x1="44.4" y1="110.6" x2="51.5" y2="103.5"/></svg>